<svg version="1.1" xmlns="http://www.w3.org/2000/svg" xmlns:xlink="http://www.w3.org/1999/xlink" width="308.48666" height="192.05733" viewBox="0,0,308.48666,192.05733"><g transform="translate(32.799,-128.93761)"><g data-paper-data="{&quot;isPaintingLayer&quot;:true}" fill-rule="nonzero" stroke-linejoin="miter" stroke-miterlimit="10" stroke-dasharray="" stroke-dashoffset="0" style="mix-blend-mode: normal"><text transform="translate(-25.42281,150.3048) scale(0.5,0.5)" font-size="40" xml:space="preserve" fill="#ffffff" fill-rule="nonzero" stroke="none" stroke-width="1" stroke-linecap="butt" stroke-linejoin="miter" stroke-miterlimit="10" stroke-dasharray="" stroke-dashoffset="0" font-family="Sans Serif" font-weight="normal" text-anchor="start" style="mix-blend-mode: normal"><tspan x="0" dy="0"> </tspan></text><text transform="translate(-32.54899,314.62775) scale(0.5,0.5)" font-size="40" xml:space="preserve" fill="#ffffff" fill-rule="nonzero" stroke="none" stroke-width="1" stroke-linecap="butt" stroke-linejoin="miter" stroke-miterlimit="10" stroke-dasharray="" stroke-dashoffset="0" font-family="Sans Serif" font-weight="normal" text-anchor="start" style="mix-blend-mode: normal"><tspan x="0" dy="0"> </tspan></text><path d="M210.19048,186.06392h-4.87814l0.12837,-11.66435" fill="none" stroke="#ffffff" stroke-width="2" stroke-linecap="round"/><path d="M218.85559,174.47682l0.06419,11.20086h-5.84093l0.12837,-11.35536z" fill="none" stroke="#ffffff" stroke-width="2" stroke-linecap="round"/><path d="M222.73161,185.60043l-0.06419,-11.20086l4.94233,-0.07725l-0.06419,11.12361" fill="none" stroke="#ffffff" stroke-width="2" stroke-linecap="round"/><path d="M227.29443,179.96138l-4.68558,-0.1545" fill="none" stroke="#ffffff" stroke-width="2" stroke-linecap="round"/><path d="M242.7581,180.88835l2.76,-0.07725v4.2486l-4.30046,-0.07725v-10.58288h4.17209" fill="none" stroke="#ffffff" stroke-width="2" stroke-linecap="round"/><path d="M249.47915,185.39249l-0.06419,-11.20086l4.94233,-0.07725l-0.06419,11.12361" fill="none" stroke="#ffffff" stroke-width="2" stroke-linecap="round"/><path d="M249.54334,179.59894l4.68558,0.1545" fill="none" stroke="#ffffff" stroke-width="2" stroke-linecap="round"/><path d="M258.23425,185.0597l-0.12837,-11.12362h7.50977v10.35114" fill="none" stroke="#ffffff" stroke-width="2" stroke-linecap="round"/><path d="M262.21378,174.09058l-0.06419,5.94804" fill="none" stroke="#ffffff" stroke-width="2" stroke-linecap="round"/><path d="M274.68766,184.20998l-4.68558,-0.07725v-10.19665l4.55721,0.07725" fill="none" stroke="#ffffff" stroke-width="2" stroke-linecap="round"/><path d="M269.87371,178.87991h4.55721" fill="none" stroke="#ffffff" stroke-width="2" stroke-linecap="round"/><path d="M230.8337,185.25341v-11.21635l3.36491,0.9347v7.47757z" fill="none" stroke="#ffffff" stroke-width="2" stroke-linecap="round"/></g></g></svg>